<svg width="43" height="25" viewBox="0 0 43 25" fill="none" xmlns="http://www.w3.org/2000/svg">
<path d="M10.897 12.9623L5.50637 12.9768L5.51537 16.3654L11.8825 16.3484L11.8895 18.9851L2.09464 19.0113L2.05691 4.79264L11.8713 4.76633L11.8783 7.4128L5.49165 7.42992L5.49961 10.428L10.8902 10.4135L10.897 12.9623ZM25.961 18.9474L22.5528 18.9565L17.4902 10.1224L17.5137 18.97L14.086 18.9792L14.0483 4.76049L17.476 4.7513L22.5287 13.5854L22.5053 4.73782L25.9232 4.72865L25.961 18.9474ZM40.9648 17.1493C40.439 17.7367 39.6688 18.2107 38.6541 18.5715C37.6395 18.9323 36.5267 19.1143 35.3157 19.1176C33.4538 19.1226 31.9646 18.5569 30.8483 17.4206C29.732 16.2842 29.1321 14.7006 29.0486 12.6695L29.0356 11.4391C29.0319 10.0393 29.276 8.81799 29.768 7.775C30.2601 6.7255 30.9643 5.91957 31.8808 5.35722C32.8037 4.78833 33.8707 4.50227 35.0816 4.49902C36.8525 4.49427 38.2272 4.89749 39.206 5.70867C40.1912 6.51332 40.7673 7.71947 40.9343 9.3271L37.6335 9.33595C37.5142 8.54199 37.2588 7.97627 36.8673 7.63878C36.4758 7.30128 35.922 7.1335 35.2058 7.13542C34.3464 7.13772 33.6834 7.50408 33.2165 8.2345C32.7497 8.96492 32.5149 10.0072 32.5119 11.3614L32.5142 12.2208C32.518 13.64 32.7617 14.7071 33.2454 15.422C33.7355 16.1303 34.5015 16.483 35.5431 16.4802C36.435 16.4779 37.0986 16.2775 37.5337 15.8792L37.5279 13.6722L35.1451 13.6786L35.1388 11.3251L40.9493 11.3095L40.9648 17.1493Z" fill="white"/>
<path d="M10.897 12.9623L10.8996 13.9623L11.8996 13.9596L11.897 12.9596L10.897 12.9623ZM5.50637 12.9768L5.50372 11.9768L4.50372 11.9795L4.50638 12.9795L5.50637 12.9768ZM5.51537 16.3654L4.51537 16.3681L4.51802 17.3681L5.51802 17.3654L5.51537 16.3654ZM11.8825 16.3484L12.8825 16.3457L12.8799 15.3457L11.8799 15.3484L11.8825 16.3484ZM11.8895 18.9851L11.8922 19.9851L12.8922 19.9824L12.8895 18.9824L11.8895 18.9851ZM2.09464 19.0113L1.09464 19.014L1.0973 20.014L2.09729 20.0113L2.09464 19.0113ZM2.05691 4.79264L2.05425 3.79264L1.05426 3.79532L1.05691 4.79532L2.05691 4.79264ZM11.8713 4.76633L12.8713 4.76365L12.8687 3.76365L11.8687 3.76633L11.8713 4.76633ZM11.8783 7.4128L11.881 8.4128L12.881 8.41012L12.8783 7.41012L11.8783 7.4128ZM5.49165 7.42992L5.489 6.42993L4.489 6.43261L4.49165 7.43261L5.49165 7.42992ZM5.49961 10.428L4.49961 10.4306L4.50227 11.4306L5.50226 11.428L5.49961 10.428ZM10.8902 10.4135L11.8902 10.4108L11.8876 9.41083L10.8876 9.41351L10.8902 10.4135ZM10.8943 11.9623L5.50372 11.9768L5.50903 13.9768L10.8996 13.9623L10.8943 11.9623ZM4.50638 12.9795L4.51537 16.3681L6.51536 16.3628L6.50637 12.9741L4.50638 12.9795ZM5.51802 17.3654L11.8852 17.3484L11.8799 15.3484L5.51271 15.3654L5.51802 17.3654ZM10.8825 16.3511L10.8895 18.9878L12.8895 18.9824L12.8825 16.3457L10.8825 16.3511ZM11.8869 17.9851L2.09199 18.0113L2.09729 20.0113L11.8922 19.9851L11.8869 17.9851ZM3.09464 19.0087L3.0569 4.78996L1.05691 4.79532L1.09464 19.014L3.09464 19.0087ZM2.05956 5.79264L11.874 5.76632L11.8687 3.76633L2.05425 3.79264L2.05956 5.79264ZM10.8713 4.76901L10.8784 7.41548L12.8783 7.41012L12.8713 4.76365L10.8713 4.76901ZM11.8757 6.41281L5.489 6.42993L5.49431 8.42992L11.881 8.4128L11.8757 6.41281ZM4.49165 7.43261L4.49961 10.4306L6.4996 10.4253L6.49165 7.42724L4.49165 7.43261ZM5.50226 11.428L10.8929 11.4135L10.8876 9.41351L5.49695 9.42796L5.50226 11.428ZM9.89022 10.4162L9.89698 12.965L11.897 12.9596L11.8902 10.4108L9.89022 10.4162ZM25.961 18.9474L25.9636 19.9474L26.9636 19.9447L26.961 18.9447L25.961 18.9474ZM22.5528 18.9565L21.6851 19.4537L21.9741 19.958L22.5554 19.9565L22.5528 18.9565ZM17.4902 10.1224L18.3579 9.62515L16.4802 6.34864L16.4902 10.1251L17.4902 10.1224ZM17.5137 18.97L17.5164 19.97L18.5164 19.9673L18.5137 18.9673L17.5137 18.97ZM14.086 18.9792L13.086 18.9819L13.0887 19.9819L14.0887 19.9792L14.086 18.9792ZM14.0483 4.76049L14.0456 3.76049L13.0456 3.76317L13.0483 4.76317L14.0483 4.76049ZM17.476 4.7513L18.344 4.2548L18.0552 3.74974L17.4733 3.7513L17.476 4.7513ZM22.5287 13.5854L21.6607 14.0819L23.5388 17.3655L23.5287 13.5828L22.5287 13.5854ZM22.5053 4.73782L22.5026 3.73782L21.5026 3.7405L21.5053 4.7405L22.5053 4.73782ZM25.9232 4.72865L26.9232 4.72597L26.9206 3.72598L25.9206 3.72866L25.9232 4.72865ZM25.9583 17.9474L22.5501 17.9565L22.5554 19.9565L25.9636 19.9474L25.9583 17.9474ZM23.4204 18.4593L18.3579 9.62515L16.6226 10.6196L21.6851 19.4537L23.4204 18.4593ZM16.4902 10.1251L16.5137 18.9727L18.5137 18.9673L18.4902 10.1197L16.4902 10.1251ZM17.5111 17.97L14.0833 17.9792L14.0887 19.9792L17.5164 19.97L17.5111 17.97ZM15.086 18.9765L15.0483 4.75781L13.0483 4.76317L13.086 18.9819L15.086 18.9765ZM14.0509 5.76049L17.4786 5.7513L17.4733 3.7513L14.0456 3.76049L14.0509 5.76049ZM16.6079 5.2478L21.6607 14.0819L23.3968 13.0889L18.344 4.2548L16.6079 5.2478ZM23.5287 13.5828L23.5053 4.73514L21.5053 4.7405L21.5288 13.5881L23.5287 13.5828ZM22.5079 5.73781L25.9259 5.72865L25.9206 3.72866L22.5026 3.73782L22.5079 5.73781ZM24.9232 4.73133L24.961 18.95L26.961 18.9447L26.9232 4.72597L24.9232 4.73133ZM40.9648 17.1493L41.7099 17.8163L41.9658 17.5304L41.9648 17.1466L40.9648 17.1493ZM29.0486 12.6695L28.0487 12.6801L28.0488 12.6954L28.0495 12.7106L29.0486 12.6695ZM29.0356 11.4391L28.0355 11.4418L28.0356 11.4497L29.0356 11.4391ZM29.768 7.775L30.6725 8.20163L30.6735 8.19945L29.768 7.775ZM31.8808 5.35722L32.4038 6.20955L32.4055 6.2085L31.8808 5.35722ZM39.206 5.70867L38.5678 6.47863L38.5734 6.48319L39.206 5.70867ZM40.9343 9.3271L40.937 10.3271L42.0433 10.3241L41.929 9.22373L40.9343 9.3271ZM37.6335 9.33595L36.6446 9.48456L36.7729 10.3383L37.6362 10.3359L37.6335 9.33595ZM33.2165 8.2345L34.0592 8.773L33.2165 8.2345ZM32.5119 11.3614L31.5119 11.3593L31.5119 11.3641L32.5119 11.3614ZM33.2454 15.422L32.4171 15.9824L32.4231 15.991L33.2454 15.422ZM37.5337 15.8792L38.2089 16.6168L38.5349 16.3185L38.5337 15.8765L37.5337 15.8792ZM37.5279 13.6722L38.5279 13.6695L38.5252 12.6695L37.5252 12.6722L37.5279 13.6722ZM35.1451 13.6786L34.1451 13.6813L34.1477 14.6812L35.1477 14.6786L35.1451 13.6786ZM35.1388 11.3251L35.1362 10.3251L34.1362 10.3277L34.1388 11.3277L35.1388 11.3251ZM40.9493 11.3095L41.9493 11.3068L41.9467 10.3068L40.9467 10.3095L40.9493 11.3095ZM40.2198 16.4823C39.8389 16.9078 39.2313 17.305 38.3191 17.6293L38.9892 19.5137C40.1063 19.1165 41.0392 18.5655 41.7099 17.8163L40.2198 16.4823ZM38.3191 17.6293C37.4236 17.9478 36.4247 18.1146 35.3131 18.1176L35.3184 20.1176C36.6286 20.1141 37.8554 19.9169 38.9892 19.5137L38.3191 17.6293ZM35.3131 18.1176C33.6711 18.122 32.4574 17.6316 31.5617 16.7198L30.135 18.1214C31.4718 19.4823 33.2364 20.1232 35.3184 20.1176L35.3131 18.1176ZM31.5617 16.7198C30.6631 15.805 30.124 14.4824 30.0478 12.6284L28.0495 12.7106C28.1402 14.9187 28.801 16.7635 30.135 18.1214L31.5617 16.7198ZM30.0486 12.6589L30.0355 11.4285L28.0356 11.4497L28.0487 12.6801L30.0486 12.6589ZM30.0356 11.4364C30.0322 10.1539 30.2558 9.08478 30.6725 8.20163L28.8636 7.34836C28.2962 8.5512 28.0316 9.92479 28.0356 11.4418L30.0356 11.4364ZM30.6735 8.19945C31.0893 7.31245 31.6669 6.66168 32.4038 6.20955L31.3578 4.50488C30.2617 5.17746 29.4308 6.13855 28.8626 7.35054L30.6735 8.19945ZM32.4055 6.2085C33.1536 5.74737 34.0356 5.50183 35.0843 5.49902L35.079 3.49902C33.7058 3.50271 32.4539 3.82929 31.3561 4.50593L32.4055 6.2085ZM35.0843 5.49902C36.7123 5.49465 37.8287 5.86601 38.5678 6.47861L39.8441 4.93874C38.6258 3.92897 36.9927 3.49389 35.079 3.49902L35.0843 5.49902ZM38.5734 6.48319C39.3024 7.07861 39.7922 8.01097 39.9397 9.43046L41.929 9.22373C41.7424 7.42796 41.0799 5.94804 39.8385 4.93416L38.5734 6.48319ZM40.9317 8.3271L37.6309 8.33595L37.6362 10.3359L40.937 10.3271L40.9317 8.3271ZM38.6224 9.18733C38.4863 8.28159 38.1699 7.44136 37.5202 6.88133L36.2144 8.39622C36.3478 8.51118 36.5421 8.8024 36.6446 9.48456L38.6224 9.18733ZM37.5202 6.88133C36.8869 6.33537 36.0674 6.1331 35.2032 6.13542L35.2085 8.13541C35.7766 8.13389 36.0647 8.2672 36.2144 8.39622L37.5202 6.88133ZM35.2032 6.13542C34 6.13865 33.022 6.6819 32.3739 7.696L34.0592 8.773C34.3447 8.32627 34.6929 8.1368 35.2085 8.13541L35.2032 6.13542ZM32.3739 7.696C31.7623 8.65303 31.5151 9.9132 31.5119 11.3593L33.5119 11.3635C33.5147 10.1012 33.7372 9.27682 34.0592 8.773L32.3739 7.696ZM31.5119 11.3641L31.5142 12.2235L33.5142 12.2181L33.5119 11.3587L31.5119 11.3641ZM31.5142 12.2235C31.5182 13.7257 31.7712 15.0276 32.4171 15.9824L34.0736 14.8616C33.7522 14.3866 33.5178 13.5544 33.5142 12.2181L31.5142 12.2235ZM32.4231 15.991C33.1412 17.0287 34.2534 17.4837 35.5458 17.4802L35.5405 15.4803C34.7495 15.4824 34.3299 15.2319 34.0677 14.8529L32.4231 15.991ZM35.5458 17.4802C36.5628 17.4775 37.5156 17.2515 38.2089 16.6168L36.8585 15.1416C36.6816 15.3035 36.3072 15.4782 35.5405 15.4803L35.5458 17.4802ZM38.5337 15.8765L38.5279 13.6695L36.5279 13.6749L36.5337 15.8819L38.5337 15.8765ZM37.5252 12.6722L35.1424 12.6786L35.1477 14.6786L37.5305 14.6722L37.5252 12.6722ZM36.1451 13.6759L36.1388 11.3224L34.1388 11.3277L34.1451 13.6813L36.1451 13.6759ZM35.1415 12.3251L40.952 12.3095L40.9467 10.3095L35.1362 10.3251L35.1415 12.3251ZM39.9493 11.3122L39.9648 17.152L41.9648 17.1466L41.9493 11.3068L39.9493 11.3122Z" fill="black"/>
</svg>
